<svg xmlns="http://www.w3.org/2000/svg" width="149" height="98" viewBox="-8 0 149 98" fill="none"><path fill-rule="evenodd" clip-rule="evenodd" d="M5.22114 96.7473C5.15452 97.1034 5.09717 97.467 5.04909 97.8362C4.70345 97.8972 4.38745 97.9388 4.09916 97.9643C3.8127 97.9872 3.56656 98.0001 3.3602 98.0001C2.90626 98.0001 2.47269 97.9361 2.059 97.8078C1.6454 97.6795 1.27338 97.478 0.942087 97.2015C0.610311 96.9253 0.370202 96.5909 0.223001 96.1971C0.0740791 95.8033 0 95.3737 0 94.9067C0 94.4002 0.0897546 93.9317 0.267925 93.5018C0.446096 93.0706 0.703315 92.7083 1.03786 92.4113C1.37098 92.1161 1.76794 91.896 2.22474 91.7508C2.68145 91.6054 3.15746 91.5334 3.6545 91.5334C4.14409 91.5334 4.68032 91.5897 5.26138 91.7021C5.27065 91.9738 5.28031 92.1663 5.2892 92.2787L5.32017 92.7696C4.97778 92.6787 4.69456 92.6162 4.4665 92.5816C4.24025 92.5491 4.02327 92.5316 3.81767 92.5316C3.49344 92.5316 3.18384 92.5816 2.88495 92.6799C2.5871 92.7803 2.32377 92.9384 2.09465 93.1533C1.86697 93.3707 1.69166 93.6316 1.56951 93.9397C1.44687 94.2459 1.38493 94.5644 1.38493 94.8972C1.38493 95.294 1.46083 95.649 1.61261 95.9626C1.76297 96.2786 2.00633 96.533 2.34088 96.7281C2.67581 96.9237 3.0894 97.0202 3.58186 97.0202C4.03895 97.0202 4.58588 96.9295 5.22114 96.7473V96.7473ZM6.16495 97.8904C6.20987 97.3751 6.26579 96.4485 6.33069 95.1094C6.39588 93.7722 6.43469 92.6162 6.45008 91.6427C6.76465 91.6492 6.98908 91.6519 7.12271 91.6519C7.3005 91.6519 7.51891 91.6492 7.77651 91.6427L7.66783 93.3128L7.51002 97.0389L7.49109 97.8904C7.24353 97.8846 7.03257 97.8812 6.85908 97.8812C6.80202 97.8812 6.5708 97.8846 6.16495 97.8904V97.8904ZM12.8056 96.8515C12.7672 97.0312 12.7112 97.3549 12.6385 97.8218C12.3114 97.8923 12.0357 97.9388 11.813 97.9643C11.5882 97.9872 11.3633 98.0001 11.1357 98.0001C10.7392 98.0001 10.3843 97.9609 10.0714 97.8812C9.75856 97.8016 9.48385 97.6565 9.24699 97.444C9.01147 97.2312 8.83827 96.9718 8.725 96.6644C8.61345 96.3551 8.55754 96.0314 8.55754 95.6924C8.55754 95.3177 8.62272 94.9533 8.75282 94.6017C8.88319 94.2489 9.06557 93.9611 9.30004 93.7364C9.53346 93.5113 9.80167 93.3536 10.1007 93.2602C10.3999 93.168 10.7142 93.1205 11.0413 93.1205C11.3495 93.1205 11.6424 93.16 11.921 93.2381C12.2003 93.3162 12.434 93.4424 12.6229 93.6194C12.812 93.7976 12.9564 94.0101 13.0583 94.2584C13.1591 94.5068 13.21 94.7849 13.21 95.0892C13.21 95.2331 13.1947 95.3798 13.1651 95.5329L9.83732 95.5381C9.8313 95.6502 9.82805 95.7408 9.82805 95.8082C9.82805 96.0127 9.86371 96.2001 9.93358 96.3704C10.0016 96.5406 10.1038 96.6861 10.2371 96.8049C10.3704 96.9253 10.5282 97.0125 10.7128 97.0689C10.8984 97.1252 11.0801 97.1534 11.2579 97.1534C11.4674 97.1534 11.6933 97.1295 11.9367 97.0848C12.18 97.0389 12.4696 96.9611 12.8056 96.8515V96.8515ZM9.87298 95.0016L11.9986 95.0068C11.9986 94.8595 11.994 94.7517 11.9847 94.6813C11.9755 94.6112 11.9552 94.5316 11.9241 94.441C11.8917 94.3503 11.8482 94.2722 11.7941 94.2033C11.7399 94.1347 11.6762 94.0771 11.6035 94.0315C11.5308 93.9865 11.4471 93.9504 11.3512 93.9256C11.2565 93.902 11.1542 93.8892 11.0441 93.8892C10.9172 93.8892 10.7947 93.9096 10.6739 93.9491C10.5546 93.9881 10.4449 94.0475 10.3457 94.1222C10.2449 94.199 10.164 94.2848 10.1024 94.38C10.0401 94.4737 9.9938 94.5644 9.96455 94.6516C9.93358 94.7392 9.90395 94.8553 9.87298 95.0016V95.0016ZM14.3046 94.2566C14.3463 94.0364 14.3726 93.8833 14.3837 93.7942C14.3943 93.7051 14.4129 93.5707 14.4407 93.3909C14.853 93.2926 15.2153 93.2256 15.5299 93.1848C15.8445 93.146 16.1495 93.1254 16.4423 93.1254C16.7755 93.1254 17.0809 93.1643 17.3599 93.2424C17.6371 93.3205 17.8555 93.4442 18.0137 93.6145C18.1697 93.7866 18.2492 94.0315 18.2492 94.3515C18.2492 94.527 18.2242 94.9689 18.1761 95.6814C18.1266 96.394 18.0988 97.1314 18.0896 97.8904C17.8586 97.8846 17.6481 97.8812 17.4542 97.8812C17.2697 97.8812 17.053 97.8846 16.8051 97.8904C16.8453 97.5218 16.8763 97.094 16.901 96.6096L16.96 95.4689C16.8453 95.5458 16.757 95.5985 16.6968 95.63C16.6362 95.6593 16.5681 95.6878 16.4922 95.7145C16.416 95.739 16.2831 95.7797 16.0925 95.833C15.9015 95.8863 15.7487 95.9331 15.6336 95.972C15.5192 96.0127 15.4152 96.0565 15.3222 96.1083C15.231 96.1582 15.1519 96.2143 15.0885 96.2767C15.0246 96.3392 14.9784 96.405 14.9505 96.4736C14.921 96.5422 14.9071 96.616 14.9071 96.6956C14.9071 96.8236 14.9445 96.9348 15.0186 97.027C15.0931 97.1204 15.1861 97.1846 15.2976 97.222C15.4091 97.2578 15.5406 97.2768 15.6928 97.2768C15.7904 97.2768 15.8926 97.2688 15.9991 97.2532C16.1064 97.2392 16.2517 97.2 16.4331 97.139C16.3697 97.3126 16.2952 97.572 16.2101 97.9171C15.9948 97.9551 15.8242 97.9768 15.6974 97.986C15.5701 97.9955 15.4526 98.0001 15.3424 98.0001C14.9613 98.0001 14.6484 97.9484 14.4036 97.844C14.1588 97.7404 13.9775 97.5769 13.8614 97.35C13.7452 97.1252 13.6861 96.8971 13.6861 96.6693C13.6861 96.5379 13.7096 96.4078 13.7545 96.2797C13.7993 96.1515 13.8659 96.033 13.9544 95.927C14.0427 95.8204 14.1557 95.7176 14.2949 95.6174C14.4347 95.5188 14.636 95.4221 14.8992 95.3299C15.1629 95.2365 15.5099 95.1422 15.9436 95.0485C16.0583 95.0237 16.1777 94.9939 16.3016 94.9593C16.4256 94.9238 16.5246 94.8893 16.5991 94.8565C16.6736 94.8221 16.7385 94.7787 16.7926 94.7254C16.8468 94.6721 16.887 94.6161 16.912 94.5585C16.9383 94.5 16.9505 94.441 16.9505 94.38C16.9505 94.2612 16.912 94.1595 16.8361 94.0787C16.7584 93.9957 16.6579 93.9381 16.5354 93.9069C16.4132 93.8738 16.2781 93.8582 16.1295 93.8582C15.578 93.8582 14.9709 93.9911 14.3046 94.2566V94.2566ZM19.2503 97.8904C19.3202 97.1984 19.3772 96.4188 19.4238 95.5568C19.4702 94.6924 19.4966 93.9188 19.5026 93.2348C19.7816 93.2408 20.0046 93.244 20.1706 93.244C20.3674 93.244 20.5765 93.2408 20.7981 93.2348L20.7468 94.0128C20.8412 93.8787 20.9235 93.7722 20.9948 93.6925C21.066 93.6145 21.1558 93.5363 21.2677 93.4601C21.3774 93.3833 21.495 93.3223 21.6205 93.2773C21.7462 93.2305 21.887 93.194 22.0437 93.1662C22.2001 93.1392 22.363 93.1254 22.5319 93.1254C22.8012 93.1254 23.0599 93.16 23.3064 93.2286C23.5526 93.2975 23.7525 93.4069 23.9029 93.5551C24.0546 93.7051 24.1551 93.8692 24.2032 94.0459C24.2514 94.222 24.2763 94.41 24.2763 94.6081C24.2763 94.6908 24.2716 94.8221 24.2623 95.0016L24.1679 97.0034C24.1551 97.2799 24.1476 97.5769 24.1444 97.8904C23.9061 97.8846 23.7015 97.8812 23.5327 97.8812C23.3018 97.8812 23.0694 97.8846 22.8368 97.8904C22.8615 97.6253 22.891 97.1626 22.9269 96.5018C22.964 95.8406 22.9811 95.4034 22.9811 95.1896C22.9811 94.949 22.9438 94.7551 22.8679 94.6081C22.792 94.4612 22.6757 94.3503 22.5162 94.2737C22.3566 94.1975 22.1862 94.1595 22.0002 94.1595C21.8189 94.1595 21.65 94.1941 21.4922 94.2646C21.3357 94.3347 21.1993 94.4379 21.0831 94.572C20.962 94.7101 20.8694 94.8785 20.8027 95.0797C20.7329 95.294 20.6819 95.6456 20.6477 96.138C20.6182 96.5737 20.5936 97.1583 20.5747 97.8904C20.3428 97.8846 20.1318 97.8812 19.9444 97.8812C19.7538 97.8812 19.523 97.8846 19.2503 97.8904V97.8904ZM27.6988 97.8904C27.7501 97.2922 27.7875 96.7767 27.8125 96.3441C27.8477 95.7237 27.8881 94.8485 27.9329 93.7164C27.9625 92.9411 27.9778 92.3914 27.9778 92.0681V91.6427C28.3544 91.6492 28.6007 91.6519 28.7185 91.6519C28.7973 91.6519 29.0318 91.6492 29.4191 91.6427L29.2794 94.1145L29.1572 97.0768L29.1429 97.8904L28.4396 97.8812C28.3544 97.8812 28.1082 97.8846 27.6988 97.8904V97.8904ZM29.346 94.5849L30.3764 93.3085L31.3153 92.1051C31.3819 92.0163 31.4934 91.8629 31.6513 91.6427L32.4678 91.6519C32.5017 91.6519 32.7621 91.6492 33.2489 91.6427L31.1602 94.1179L30.8072 94.5612L31.0922 94.9737C31.1353 95.0313 31.4343 95.4282 31.9904 96.1643L33.3123 97.8904L32.5049 97.8812C32.3624 97.8812 32.0681 97.8846 31.6203 97.8904L31.3291 97.433C31.275 97.3441 31.1788 97.2 31.0391 96.9985L29.8046 95.2221L29.346 94.5849V94.5849ZM36.3957 93.1254C36.7427 93.1254 37.0759 93.179 37.3951 93.2832C37.7157 93.3881 37.9855 93.5441 38.2085 93.7508C38.4302 93.9568 38.5976 94.2082 38.7105 94.5052C38.8221 94.8035 38.8777 95.1162 38.8777 95.4457C38.8777 95.7941 38.8189 96.1297 38.7013 96.4534C38.5834 96.7767 38.4112 97.0566 38.1882 97.2922C37.9638 97.5297 37.6848 97.7064 37.3502 97.8234C37.0157 97.9407 36.659 98.0001 36.2813 98.0001C35.9307 98.0001 35.5962 97.9471 35.2805 97.8424C34.964 97.7373 34.6947 97.5781 34.4699 97.3687C34.2469 97.1583 34.0762 96.9017 33.9604 96.6C33.8443 96.2972 33.7851 95.9812 33.7851 95.6517C33.7851 95.3161 33.8379 94.9958 33.9447 94.6908C34.0499 94.3864 34.2159 94.1145 34.4403 93.8757C34.6666 93.638 34.9549 93.4534 35.3051 93.3223C35.6568 93.191 36.0194 93.1254 36.3957 93.1254V93.1254ZM36.3957 94.0695C36.1324 94.0695 35.8969 94.1329 35.6892 94.2627C35.4818 94.3923 35.3282 94.5864 35.2259 94.8424C35.1251 95.0984 35.0742 95.3785 35.0742 95.6799C35.0742 95.9457 35.1162 96.1812 35.1996 96.3891C35.2819 96.5973 35.418 96.7645 35.6072 96.8922C35.7964 97.0202 36.0208 97.0848 36.2813 97.0848C36.5478 97.0848 36.7812 97.0187 36.9829 96.8864C37.1845 96.7535 37.3346 96.5578 37.4368 96.2999C37.5376 96.0422 37.5885 95.7577 37.5885 95.4471C37.5885 95.1924 37.5501 94.9627 37.471 94.7551C37.3919 94.5484 37.2604 94.3812 37.0727 94.2566C36.887 94.1317 36.6608 94.0695 36.3957 94.0695V94.0695ZM40.9527 97.8904C40.7529 97.2471 40.217 95.694 39.3416 93.2348C39.608 93.2408 39.8372 93.244 40.0306 93.244C40.2369 93.244 40.4475 93.2408 40.663 93.2348L41.7259 96.7281L41.8712 96.3297L42.8924 93.7164C42.9405 93.5943 43.001 93.4332 43.0738 93.2348C43.3214 93.2408 43.5416 93.244 43.7354 93.244C43.9321 93.244 44.1566 93.2408 44.4078 93.2348L43.667 94.8503L42.5963 97.2998L42.3562 97.8904C42.0836 97.8846 41.8545 97.8812 41.6699 97.8812C41.4762 97.8812 41.2378 97.8846 40.9527 97.8904ZM45.1331 94.2566C45.1752 94.0364 45.2016 93.8833 45.2119 93.7942C45.2229 93.7051 45.2414 93.5707 45.2696 93.3909C45.6815 93.2926 46.0442 93.2256 46.3588 93.1848C46.673 93.146 46.9784 93.1254 47.2713 93.1254C47.6044 93.1254 47.9098 93.1643 48.1884 93.2424C48.4659 93.3205 48.6843 93.4442 48.8422 93.6145C48.9986 93.7866 49.078 94.0315 49.078 94.3515C49.078 94.527 49.0531 94.9689 49.005 95.6814C48.9555 96.394 48.9274 97.1314 48.9181 97.8904C48.6876 97.8846 48.4766 97.8812 48.2828 97.8812C48.0986 97.8812 47.8816 97.8846 47.6336 97.8904C47.6739 97.5218 47.7049 97.094 47.7298 96.6096L47.7886 95.4689C47.6739 95.5458 47.5859 95.5985 47.5254 95.63C47.4651 95.6593 47.3967 95.6878 47.3208 95.7145C47.2449 95.739 47.1117 95.7797 46.9211 95.833C46.7305 95.8863 46.5769 95.9331 46.4624 95.972C46.3481 96.0127 46.2441 96.0565 46.1511 96.1083C46.0598 96.1582 45.9808 96.2143 45.917 96.2767C45.8536 96.3392 45.8073 96.405 45.7791 96.4736C45.7499 96.5422 45.736 96.616 45.736 96.6956C45.736 96.8236 45.7731 96.9348 45.8476 97.027C45.9216 97.1204 46.0146 97.1846 46.1265 97.222C46.2376 97.2578 46.3695 97.2768 46.5213 97.2768C46.6189 97.2768 46.7212 97.2688 46.8281 97.2532C46.9353 97.2392 47.0807 97.2 47.2616 97.139C47.1986 97.3126 47.1242 97.572 47.0386 97.9171C46.8234 97.9551 46.6531 97.9768 46.5259 97.986C46.3991 97.9955 46.2811 98.0001 46.1714 98.0001C45.7902 98.0001 45.477 97.9484 45.2322 97.844C44.9874 97.7404 44.8064 97.5769 44.6903 97.35C44.5738 97.1252 44.515 96.8971 44.515 96.6693C44.515 96.5379 44.5381 96.4078 44.5831 96.2797C44.6279 96.1515 44.6949 96.033 44.7833 95.927C44.8712 95.8204 44.9846 95.7176 45.1239 95.6174C45.2632 95.5188 45.4648 95.4221 45.7282 95.3299C45.9915 95.2365 46.3385 95.1422 46.7721 95.0485C46.8872 95.0237 47.0065 94.9939 47.1302 94.9593C47.2542 94.9238 47.3532 94.8893 47.4277 94.8565C47.5021 94.8221 47.5674 94.7787 47.6215 94.7254C47.6757 94.6721 47.7159 94.6161 47.7409 94.5585C47.7669 94.5 47.7793 94.441 47.7793 94.38C47.7793 94.2612 47.7409 94.1595 47.665 94.0787C47.5873 93.9957 47.4868 93.9381 47.3643 93.9069C47.2418 93.8738 47.1071 93.8582 46.9584 93.8582C46.4065 93.8582 45.7995 93.9911 45.1331 94.2566V94.2566ZM50.3579 92.4398C50.3703 92.1257 50.3764 91.8834 50.3764 91.7162V91.5695C50.6522 91.5757 50.8752 91.579 51.0487 91.579C51.2846 91.579 51.5045 91.5757 51.7072 91.5695C51.6979 91.6458 51.6919 91.7331 51.6887 91.8304L51.6655 92.4398C51.436 92.4334 51.2237 92.4304 51.0303 92.4304C50.8367 92.4304 50.6119 92.4334 50.3579 92.4398ZM50.1117 97.8904C50.1566 97.433 50.189 97.0499 50.2076 96.7422C50.2371 96.2534 50.2649 95.6906 50.2866 95.0518C50.3101 94.4143 50.3254 93.8086 50.3347 93.2348C50.6322 93.2408 50.8535 93.244 51.0021 93.244C51.1371 93.244 51.3587 93.2408 51.6641 93.2348C51.622 93.7664 51.5882 94.2722 51.5618 94.7551C51.5369 95.2365 51.5183 95.7892 51.5059 96.4126C51.4934 97.0346 51.4874 97.5279 51.4874 97.8904C51.2116 97.8846 50.9917 97.8812 50.8243 97.8812C50.6679 97.8812 50.4291 97.8846 50.1117 97.8904V97.8904ZM52.6778 97.8904C52.6898 97.6703 52.7073 97.2608 52.7273 96.6592L53.4167 96.6693C53.4769 96.6693 53.6754 96.6659 54.0114 96.6592C53.9961 96.883 53.9836 97.1066 53.9761 97.3331L53.9483 97.8904L53.3529 97.8812C53.3298 97.8812 53.1035 97.8846 52.6778 97.8904V97.8904ZM61.0924 94.3206C61.5107 94.327 61.9104 94.3297 62.2917 94.3297C62.7905 94.3297 63.2056 94.327 63.5387 94.3206C63.4599 95.3422 63.404 96.477 63.3716 97.7251C62.8678 97.8268 62.4143 97.8972 62.0095 97.9374C61.6037 97.9796 61.2581 98.0001 60.9748 98.0001C60.4418 98.0001 59.9476 97.9441 59.4922 97.8311C59.038 97.7174 58.6521 97.5347 58.3378 97.2811C58.0233 97.0282 57.7831 96.6956 57.6188 96.2813C57.4532 95.8676 57.3712 95.4312 57.3712 94.9704C57.3712 94.5772 57.4328 94.1975 57.5555 93.8304C57.6776 93.4644 57.859 93.1288 58.0992 92.8238C58.3393 92.5194 58.6304 92.2643 58.9714 92.0613C59.3105 91.8586 59.6733 91.7212 60.0559 91.6458C60.4386 91.5711 60.843 91.5334 61.2691 91.5334C61.8563 91.5334 62.5318 91.613 63.2939 91.7707C63.2972 92.1192 63.3143 92.483 63.3434 92.8645C62.6294 92.6211 61.9835 92.4992 61.4053 92.4992C61.0336 92.4992 60.682 92.5519 60.3502 92.66C60.0203 92.7663 59.7339 92.9316 59.4937 93.1552C59.2535 93.3799 59.0708 93.6582 58.945 93.9892C58.8196 94.3194 58.7561 94.6626 58.7561 95.016C58.7561 95.4095 58.8274 95.761 58.9714 96.0718C59.1153 96.3814 59.3572 96.6218 59.6949 96.7924C60.0342 96.9626 60.4233 97.0484 60.8615 97.0484C61.0211 97.0484 61.21 97.0346 61.4284 97.0049C61.6454 96.977 61.8734 96.9268 62.1089 96.8563L62.1816 95.25L61.8235 95.2457C61.6208 95.2457 61.3635 95.25 61.0522 95.2594C61.0803 94.8503 61.0924 94.538 61.0924 94.3206V94.3206ZM64.5788 97.8904L64.7106 95.716L64.7462 94.4517C64.7523 94.1923 64.7555 93.9317 64.7555 93.6693C64.7555 93.6237 64.7523 93.4788 64.7462 93.2348C65.028 93.2408 65.234 93.244 65.3673 93.244C65.5222 93.244 65.7267 93.2408 65.9808 93.2348L65.9576 93.88C66.0724 93.7164 66.1714 93.5924 66.2533 93.5128C66.3342 93.4317 66.4272 93.3612 66.528 93.3037C66.6299 93.2458 66.7415 93.2017 66.8655 93.1708C66.9912 93.141 67.1181 93.1254 67.2481 93.1254C67.3689 93.1254 67.4929 93.141 67.6201 93.1708C67.6201 93.4553 67.634 93.8144 67.6603 94.2508C67.4822 94.2021 67.3194 94.1785 67.1754 94.1785C66.9987 94.1785 66.844 94.2051 66.7091 94.2584C66.5744 94.3111 66.4536 94.3923 66.3463 94.5018C66.238 94.6096 66.1496 94.7422 66.0802 94.9018C66.0228 95.0298 65.9808 95.1958 65.953 95.4003C65.9295 95.5595 65.9095 95.8312 65.8928 96.2161C65.8771 96.6 65.8696 96.9779 65.8696 97.35C65.8696 97.4939 65.8724 97.6737 65.8817 97.8904C65.6527 97.8846 65.4417 97.8812 65.2511 97.8812C65.0637 97.8812 64.8392 97.8846 64.5788 97.8904ZM72.372 96.8515C72.3336 97.0312 72.2776 97.3549 72.2049 97.8218C71.8782 97.8923 71.6021 97.9388 71.3791 97.9643C71.1542 97.9872 70.9297 98.0001 70.7021 98.0001C70.3055 98.0001 69.951 97.9609 69.6378 97.8812C69.3247 97.8016 69.0506 97.6565 68.8134 97.444C68.5779 97.2312 68.4043 96.9718 68.2914 96.6644C68.1798 96.3551 68.1239 96.0314 68.1239 95.6924C68.1239 95.3177 68.1891 94.9533 68.3191 94.6017C68.4492 94.2489 68.6323 93.9611 68.8661 93.7364C69.1001 93.5113 69.3681 93.3536 69.6671 93.2602C69.9663 93.168 70.2806 93.1205 70.6076 93.1205C70.9159 93.1205 71.2087 93.16 71.4877 93.2381C71.7663 93.3162 72.0004 93.4424 72.1893 93.6194C72.3784 93.7976 72.5224 94.0101 72.6246 94.2584C72.7255 94.5068 72.7768 94.7849 72.7768 95.0892C72.7768 95.2331 72.7611 95.3798 72.7319 95.5329L69.4037 95.5381C69.3973 95.6502 69.3944 95.7408 69.3944 95.8082C69.3944 96.0127 69.4301 96.2001 69.4996 96.3704C69.5679 96.5406 69.6702 96.6861 69.8034 96.8049C69.9367 96.9253 70.0949 97.0125 70.2792 97.0689C70.4651 97.1252 70.6461 97.1534 70.8246 97.1534C71.0334 97.1534 71.2597 97.1295 71.5031 97.0848C71.7464 97.0389 72.036 96.9611 72.372 96.8515V96.8515ZM69.4394 95.0016L71.565 95.0068C71.565 94.8595 71.5604 94.7517 71.5511 94.6813C71.5419 94.6112 71.5216 94.5316 71.4905 94.441C71.4581 94.3503 71.415 94.2722 71.3605 94.2033C71.3063 94.1347 71.243 94.0771 71.1698 94.0315C71.0972 93.9865 71.0135 93.9504 70.9173 93.9256C70.8229 93.902 70.7206 93.8892 70.6109 93.8892C70.4836 93.8892 70.3611 93.9096 70.2403 93.9491C70.1213 93.9881 70.0109 94.0475 69.9118 94.1222C69.8113 94.199 69.7308 94.2848 69.6685 94.38C69.6068 94.4737 69.5605 94.5644 69.5306 94.6516C69.4996 94.7392 69.4703 94.8553 69.4394 95.0016V95.0016ZM77.642 96.8515C77.6028 97.0312 77.5473 97.3549 77.4745 97.8218C77.1478 97.8923 76.8717 97.9388 76.6487 97.9643C76.4242 97.9872 76.1993 98.0001 75.9717 98.0001C75.5752 98.0001 75.2203 97.9609 74.9074 97.8812C74.5947 97.8016 74.3202 97.6565 74.0834 97.444C73.8475 97.2312 73.674 96.9718 73.561 96.6644C73.4494 96.3551 73.3935 96.0314 73.3935 95.6924C73.3935 95.3177 73.4587 94.9533 73.5888 94.6017C73.7192 94.2489 73.9019 93.9611 74.1357 93.7364C74.3697 93.5113 74.6378 93.3536 74.937 93.2602C75.2355 93.168 75.5502 93.1205 75.8773 93.1205C76.1855 93.1205 76.4783 93.16 76.7574 93.2381C77.036 93.3162 77.2701 93.4424 77.4589 93.6194C77.6481 93.7976 77.792 94.0101 77.8942 94.2584C77.9951 94.5068 78.046 94.7849 78.046 95.0892C78.046 95.2331 78.0307 95.3798 78.0011 95.5329L74.6733 95.5381C74.6673 95.6502 74.664 95.7408 74.664 95.8082C74.664 96.0127 74.6997 96.2001 74.7696 96.3704C74.8376 96.5406 74.9399 96.6861 75.0732 96.8049C75.2064 96.9253 75.3642 97.0125 75.5488 97.0689C75.7348 97.1252 75.9157 97.1534 76.0939 97.1534C76.3034 97.1534 76.5293 97.1295 76.7727 97.0848C77.016 97.0389 77.3056 96.9611 77.642 96.8515V96.8515ZM74.709 95.0016L76.8347 95.0068C76.8347 94.8595 76.83 94.7517 76.8207 94.6813C76.8115 94.6112 76.7912 94.5316 76.7605 94.441C76.7277 94.3503 76.6846 94.2722 76.6301 94.2033C76.5759 94.1347 76.5126 94.0771 76.4395 94.0315C76.3668 93.9865 76.2831 93.9504 76.1869 93.9256C76.0925 93.902 75.9902 93.8892 75.8805 93.8892C75.7532 93.8892 75.6307 93.9096 75.51 93.9491C75.3906 93.9881 75.2809 94.0475 75.1818 94.1222C75.081 94.199 75.0004 94.2848 74.9385 94.38C74.8764 94.4737 74.8298 94.5644 74.8002 94.6516C74.7696 94.7392 74.7399 94.8553 74.709 95.0016V95.0016ZM78.7576 97.8904C78.8274 97.1984 78.8848 96.4188 78.9314 95.5568C78.9778 94.6924 79.0042 93.9188 79.0102 93.2348C79.2892 93.2408 79.5122 93.244 79.6782 93.244C79.875 93.244 80.0841 93.2408 80.3057 93.2348L80.2543 94.0128C80.3488 93.8787 80.4311 93.7722 80.5024 93.6925C80.5736 93.6145 80.6634 93.5363 80.7749 93.4601C80.885 93.3833 81.0026 93.3223 81.128 93.2773C81.2538 93.2305 81.3946 93.194 81.5513 93.1662C81.7077 93.1392 81.8706 93.1254 82.0394 93.1254C82.3087 93.1254 82.5675 93.16 82.814 93.2286C83.0602 93.2975 83.2601 93.4069 83.4105 93.5551C83.5622 93.7051 83.6627 93.8692 83.7108 94.0459C83.7589 94.222 83.7838 94.41 83.7838 94.6081C83.7838 94.6908 83.7792 94.8221 83.77 95.0016L83.6755 97.0034C83.6627 97.2799 83.6553 97.5769 83.652 97.8904C83.4133 97.8846 83.2092 97.8812 83.0403 97.8812C82.8094 97.8812 82.5771 97.8846 82.3444 97.8904C82.369 97.6253 82.3986 97.1626 82.4342 96.5018C82.4716 95.8406 82.4883 95.4034 82.4883 95.1896C82.4883 94.949 82.4513 94.7551 82.3754 94.6081C82.2995 94.4612 82.1833 94.3503 82.0237 94.2737C81.8641 94.1975 81.6938 94.1595 81.5078 94.1595C81.3265 94.1595 81.1576 94.1941 80.9994 94.2646C80.8433 94.3347 80.7068 94.4379 80.5907 94.572C80.4696 94.7101 80.377 94.8785 80.3104 95.0797C80.2405 95.294 80.1895 95.6456 80.1553 96.138C80.1258 96.5737 80.1012 97.1583 80.0823 97.8904C79.85 97.8846 79.6391 97.8812 79.452 97.8812C79.2614 97.8812 79.0305 97.8846 78.7576 97.8904V97.8904ZM87.2064 97.8904C87.2578 97.2922 87.2951 96.7767 87.3197 96.3441C87.3553 95.7237 87.3956 94.8485 87.4405 93.7164C87.47 92.9411 87.4854 92.3914 87.4854 92.0681V91.6427C87.8617 91.6492 88.1083 91.6519 88.2261 91.6519C88.3049 91.6519 88.539 91.6492 88.9267 91.6427L88.7869 94.1145L88.6644 97.0768L88.6505 97.8904L87.9472 97.8812C87.8617 97.8812 87.6154 97.8846 87.2064 97.8904ZM88.8536 94.5849L89.8837 93.3085L90.8229 92.1051C90.8895 92.0163 91.001 91.8629 91.1589 91.6427L91.9754 91.6519C92.0093 91.6519 92.2698 91.6492 92.7561 91.6427L90.6678 94.1179L90.3148 94.5612L90.5998 94.9737C90.6429 95.0313 90.9419 95.4282 91.498 96.1643L92.8198 97.8904L92.0125 97.8812C91.87 97.8812 91.5757 97.8846 91.1278 97.8904L90.8367 97.433C90.7825 97.3441 90.6864 97.2 90.5467 96.9985L89.3122 95.2221L88.8536 94.5849V94.5849ZM95.9033 93.1254C96.2503 93.1254 96.5834 93.179 96.9027 93.2832C97.2233 93.3881 97.4931 93.5441 97.7161 93.7508C97.9374 93.9568 98.1048 94.2082 98.2181 94.5052C98.3293 94.8035 98.3853 95.1162 98.3853 95.4457C98.3853 95.7941 98.3264 96.1297 98.2085 96.4534C98.091 96.7767 97.9188 97.0566 97.6958 97.2922C97.4713 97.5297 97.1924 97.7064 96.8578 97.8234C96.5229 97.9407 96.1666 98.0001 95.7889 98.0001C95.4383 98.0001 95.1038 97.9471 94.788 97.8424C94.4717 97.7373 94.2023 97.5781 93.9775 97.3687C93.7545 97.1583 93.5838 96.9017 93.468 96.6C93.3519 96.2972 93.2927 95.9812 93.2927 95.6517C93.2927 95.3161 93.3455 94.9958 93.4523 94.6908C93.5574 94.3864 93.7234 94.1145 93.9479 93.8757C94.1742 93.638 94.4624 93.4534 94.8127 93.3223C95.1644 93.191 95.5267 93.1254 95.9033 93.1254V93.1254ZM95.9033 94.0695C95.64 94.0695 95.4045 94.1329 95.1968 94.2627C94.9891 94.3923 94.8358 94.5864 94.7336 94.8424C94.6327 95.0984 94.5818 95.3785 94.5818 95.6799C94.5818 95.9457 94.6234 96.1812 94.7072 96.3891C94.7895 96.5973 94.9256 96.7645 95.1145 96.8922C95.3036 97.0202 95.5281 97.0848 95.7889 97.0848C96.0554 97.0848 96.2888 97.0187 96.4905 96.8864C96.6921 96.7535 96.8422 96.5578 96.9443 96.2999C97.0452 96.0422 97.0961 95.7577 97.0961 95.4471C97.0961 95.1924 97.0577 94.9627 96.9786 94.7551C96.8995 94.5484 96.7677 94.3812 96.5803 94.2566C96.3946 94.1317 96.1684 94.0695 95.9033 94.0695V94.0695ZM100.46 97.8904C100.26 97.2471 99.7245 95.694 98.8492 93.2348C99.1157 93.2408 99.3444 93.244 99.5382 93.244C99.7445 93.244 99.9551 93.2408 100.17 93.2348L101.233 96.7281L101.379 96.3297L102.4 93.7164C102.448 93.5943 102.508 93.4332 102.581 93.2348C102.829 93.2408 103.049 93.244 103.243 93.244C103.439 93.244 103.664 93.2408 103.915 93.2348L103.175 94.8503L102.104 97.2998L101.864 97.8904C101.591 97.8846 101.362 97.8812 101.178 97.8812C100.984 97.8812 100.745 97.8846 100.46 97.8904V97.8904ZM104.641 94.2566C104.683 94.0364 104.709 93.8833 104.72 93.7942C104.731 93.7051 104.749 93.5707 104.777 93.3909C105.189 93.2926 105.552 93.2256 105.866 93.1848C106.181 93.146 106.486 93.1254 106.779 93.1254C107.112 93.1254 107.417 93.1643 107.696 93.2424C107.974 93.3205 108.192 93.4442 108.35 93.6145C108.506 93.7866 108.585 94.0315 108.585 94.3515C108.585 94.527 108.561 94.9689 108.513 95.6814C108.463 96.394 108.435 97.1314 108.426 97.8904C108.195 97.8846 107.984 97.8812 107.79 97.8812C107.606 97.8812 107.389 97.8846 107.141 97.8904C107.181 97.5218 107.212 97.094 107.237 96.6096L107.296 95.4689C107.181 95.5458 107.093 95.5985 107.033 95.63C106.973 95.6593 106.904 95.6878 106.828 95.7145C106.753 95.739 106.619 95.7797 106.429 95.833C106.238 95.8863 106.084 95.9331 105.97 95.972C105.855 96.0127 105.752 96.0565 105.659 96.1083C105.567 96.1582 105.488 96.2143 105.425 96.2767C105.361 96.3392 105.315 96.405 105.287 96.4736C105.257 96.5422 105.244 96.616 105.244 96.6956C105.244 96.8236 105.281 96.9348 105.355 97.027C105.429 97.1204 105.522 97.1846 105.634 97.222C105.745 97.2578 105.877 97.2768 106.029 97.2768C106.127 97.2768 106.229 97.2688 106.336 97.2532C106.443 97.2392 106.588 97.2 106.769 97.139C106.706 97.3126 106.632 97.572 106.546 97.9171C106.331 97.9551 106.161 97.9768 106.034 97.986C105.907 97.9955 105.789 98.0001 105.679 98.0001C105.298 98.0001 104.985 97.9484 104.74 97.844C104.495 97.7404 104.314 97.5769 104.198 97.35C104.081 97.1252 104.023 96.8971 104.023 96.6693C104.023 96.5379 104.046 96.4078 104.091 96.2797C104.135 96.1515 104.202 96.033 104.291 95.927C104.379 95.8204 104.492 95.7176 104.631 95.6174C104.771 95.5188 104.972 95.4221 105.236 95.3299C105.499 95.2365 105.846 95.1422 106.28 95.0485C106.394 95.0237 106.514 94.9939 106.638 94.9593C106.762 94.9238 106.861 94.8893 106.935 94.8565C107.01 94.8221 107.075 94.7787 107.129 94.7254C107.183 94.6721 107.224 94.6161 107.248 94.5585C107.274 94.5 107.287 94.441 107.287 94.38C107.287 94.2612 107.248 94.1595 107.172 94.0787C107.095 93.9957 106.994 93.9381 106.872 93.9069C106.749 93.8738 106.615 93.8582 106.466 93.8582C105.914 93.8582 105.307 93.9911 104.641 94.2566V94.2566Z" fill="#A94835"></path><path fill-rule="evenodd" clip-rule="evenodd" d="M109.866 92.4396C109.879 92.1255 109.885 91.8832 109.885 91.7161V91.5693C110.161 91.5755 110.384 91.5789 110.557 91.5789C110.793 91.5789 111.013 91.5755 111.216 91.5693C111.206 91.6457 111.2 91.7329 111.197 91.8302L111.174 92.4396C110.944 92.4332 110.732 92.4302 110.539 92.4302C110.345 92.4302 110.12 92.4332 109.866 92.4396ZM109.62 97.8903C109.665 97.4328 109.697 97.0497 109.716 96.742C109.746 96.2533 109.773 95.6905 109.795 95.0517C109.818 94.4141 109.834 93.8084 109.843 93.2346C110.14 93.2407 110.362 93.2438 110.51 93.2438C110.646 93.2438 110.867 93.2407 111.173 93.2346C111.13 93.7662 111.097 94.2721 111.07 94.7549C111.045 95.2363 111.027 95.789 111.014 96.4125C111.002 97.0344 110.995 97.5277 110.995 97.8903C110.72 97.8844 110.5 97.8811 110.333 97.8811C110.176 97.8811 109.938 97.8844 109.62 97.8903V97.8903ZM112.186 97.8903C112.198 97.6701 112.215 97.2607 112.236 96.659L112.925 96.6691C112.985 96.6691 113.184 96.6657 113.52 96.659C113.504 96.8829 113.492 97.1064 113.485 97.333L113.457 97.8903L112.861 97.8811C112.838 97.8811 112.612 97.8844 112.186 97.8903V97.8903Z" fill="#A94835"></path><path fill-rule="evenodd" clip-rule="evenodd" d="M19.0795 80.766V73.6356C19.0795 72.7076 19.0224 71.8762 18.9142 71.1365C18.8 70.3969 18.6004 69.5547 18.3096 68.6051H20.9035H23.4918C23.201 69.1558 22.9957 69.7977 22.8819 70.5319C22.762 71.2715 22.7049 72.3075 22.7049 73.6356V80.766C22.7049 82.1048 22.762 83.1408 22.8819 83.875C22.9957 84.609 23.201 85.2458 23.4918 85.7964H20.9035H18.3096C18.6004 85.2674 18.8 84.6362 18.9142 83.8966C19.0224 83.1624 19.0795 82.1156 19.0795 80.766V80.766ZM25.6716 80.766V73.6356C25.6716 72.7076 25.6144 71.8762 25.5063 71.1365C25.3921 70.3969 25.1928 69.5547 24.9021 68.6051H27.091H29.297V71.6547L32.119 68.6539C32.9512 68.3673 33.7548 68.2274 34.5246 68.2274C35.1576 68.2274 35.6991 68.3404 36.1437 68.5726L35.4083 72.2754L35.243 72.1677C34.5644 71.6928 33.7548 71.4549 32.8204 71.4549C32.1303 71.4549 31.2296 71.6977 30.1179 72.1785L29.297 72.529V80.766C29.297 82.1048 29.3541 83.1408 29.4736 83.875C29.5878 84.609 29.7932 85.2458 30.0839 85.7964H27.4956H24.9021C25.1928 85.2674 25.3921 84.6362 25.5063 83.8966C25.6144 83.1624 25.6716 82.1156 25.6716 80.766V80.766ZM41.1565 73.6356V80.0371C41.1565 81.0303 41.3958 81.7645 41.8805 82.2446C42.3653 82.7255 43.1061 82.963 44.0982 82.963C44.8848 82.963 45.8312 82.7576 46.9372 82.3475L47.5358 82.1264V73.6356C47.5358 72.6964 47.4787 71.8598 47.3702 71.1201C47.256 70.3812 47.0567 69.5442 46.7659 68.6051H49.3598H51.9478C51.657 69.1558 51.4521 69.7977 51.3382 70.5319C51.2183 71.2715 51.1613 72.3075 51.1613 73.6356V80.766C51.1613 82.1048 51.2183 83.1408 51.3382 83.875C51.4521 84.609 51.657 85.2458 51.9478 85.7964H49.8443H47.7181V82.8709L44.862 85.8128C43.8302 86.0663 43.0493 86.1904 42.5249 86.1904C40.8887 86.1904 39.6458 85.78 38.8022 84.9546C37.9529 84.134 37.5309 82.9361 37.5309 81.3652V73.6356C37.5309 72.7076 37.4739 71.8706 37.3657 71.1365C37.2515 70.3969 37.0522 69.5547 36.7611 68.6051H39.3551H41.9433C41.6525 69.1558 41.4476 69.7977 41.3217 70.5319C41.2136 71.2715 41.1565 72.3075 41.1565 73.6356ZM58.9105 86.1744C57.4857 86.1744 56.4477 85.7752 55.7924 84.971C55.1424 84.172 54.8176 82.8873 54.8176 81.1272V70.9744H52.2464C55.8364 69.9495 57.1123 68.2393 57.1811 63.53L58.5541 63.4749L58.4431 68.6051H62.6672V70.9744H58.4431V79.6863C58.4431 80.8466 58.6541 81.7156 59.0701 82.2882C59.4864 82.8653 60.1133 83.1517 60.9459 83.1517C61.4586 83.1517 61.932 83.0924 62.3593 82.9791C62.7871 82.8604 63.3001 82.6554 63.9044 82.3635L62.4679 85.6674C61.8349 85.8665 61.2764 86.0015 60.803 86.0723C60.3299 86.142 59.703 86.1744 58.9105 86.1744V86.1744ZM66.7235 80.766V67.1694C66.7235 66.0517 66.6689 65.1234 66.5579 64.3837C66.4468 63.6441 66.2444 62.8996 65.954 62.1383L68.5475 61.6476L71.1355 61.1399C70.8451 61.9228 70.6429 62.7922 70.5259 63.7525C70.4093 64.7084 70.3489 66.02 70.3489 67.6715V71.5955L73.1025 68.5887C74.0372 68.346 74.8184 68.2274 75.4397 68.2274C77.0872 68.2274 78.3397 68.7146 79.1963 69.6897C80.0556 70.6682 80.4846 72.0868 80.4846 73.9543V80.766C80.4846 82.2017 80.5336 83.2863 80.6272 84.0155C80.7215 84.7492 80.8896 85.3431 81.1346 85.7964H78.6148H76.0894C76.3805 85.2674 76.5822 84.6362 76.6935 83.8966C76.8042 83.1628 76.8592 82.1156 76.8592 80.766V74.4289C76.8592 73.4249 76.6141 72.6804 76.1237 72.189C75.6337 71.6977 74.8808 71.4549 73.8719 71.4549C73.1822 71.4549 72.2862 71.7081 71.1642 72.1834L70.3489 72.529V80.766C70.3489 82.1041 70.4089 83.1408 70.5259 83.875C70.6426 84.6086 70.8451 85.2458 71.1355 85.7964H68.5475H65.954C66.2444 85.2674 66.4466 84.6362 66.5579 83.8966C66.6685 83.1628 66.7235 82.1156 66.7235 80.766V80.766ZM88.376 73.6356V80.0371C88.376 81.0303 88.6154 81.7645 89.0998 82.2446C89.5845 82.7255 90.3253 82.963 91.3175 82.963C92.104 82.963 93.0504 82.7576 94.1565 82.3475L94.7551 82.1264V73.6356C94.7551 72.6964 94.6979 71.8598 94.5898 71.1201C94.4756 70.3812 94.276 69.5442 93.9852 68.6051H96.5791H99.1673C98.8762 69.1558 98.6713 69.7977 98.5575 70.5319C98.4376 71.2715 98.3805 72.3075 98.3805 73.6356V80.766C98.3805 82.1048 98.4376 83.1408 98.5575 83.875C98.6713 84.609 98.8762 85.2458 99.1673 85.7964H97.0635H94.9373V82.8709L92.0813 85.8128C91.0494 86.0663 90.2686 86.1904 89.7441 86.1904C88.108 86.1904 86.8651 85.78 86.0214 84.9546C85.1722 84.134 84.7502 82.9361 84.7502 81.3652V73.6356C84.7502 72.7076 84.6935 71.8706 84.585 71.1365C84.4708 70.3969 84.2715 69.5547 83.9807 68.6051H86.5746H89.1626C88.8718 69.1558 88.6668 69.7977 88.5413 70.5319C88.4331 71.2715 88.376 72.3075 88.376 73.6356V73.6356ZM102.305 80.766V67.1694C102.305 66.0517 102.248 65.1237 102.139 64.3837C102.025 63.6448 101.826 62.8996 101.535 62.1383L104.129 61.6476L106.717 61.1399C106.426 61.9228 106.221 62.7918 106.107 63.747C105.987 64.7081 105.93 66.014 105.93 67.6715V80.766C105.93 82.1048 105.987 83.1408 106.107 83.875C106.221 84.609 106.426 85.2458 106.717 85.7964H104.129H101.535C101.826 85.2674 102.025 84.6362 102.139 83.8966C102.248 83.1624 102.305 82.1156 102.305 80.766V80.766ZM109.108 80.766V73.6356C109.108 72.7076 109.051 71.8762 108.942 71.1365C108.829 70.3969 108.629 69.5547 108.338 68.6051H110.932H113.52C113.23 69.1558 113.024 69.7977 112.91 70.5319C112.79 71.2715 112.734 72.3075 112.734 73.6356V80.766C112.734 82.1048 112.79 83.1408 112.91 83.875C113.024 84.609 113.23 85.2458 113.52 85.7964H110.932H108.338C108.629 85.2674 108.829 84.6362 108.942 83.8966C109.051 83.1624 109.108 82.1156 109.108 80.766V80.766Z" fill="#2C8F25"></path><path fill-rule="evenodd" clip-rule="evenodd" d="M15.3086 66.7383C14.3948 65.945 13.4739 65.373 12.5597 65.017C11.6392 64.6553 10.6314 64.4771 9.52892 64.4771C8.24522 64.4771 7.17718 64.7903 6.33003 65.4166C5.48356 66.0423 5.06688 66.8248 5.06688 67.7642C5.06688 68.5684 5.38928 69.2913 6.04807 69.9448C6.69315 70.5869 7.85585 71.3374 9.53606 72.1907C12.0831 73.4966 13.8703 74.7221 14.9055 75.8607C15.947 76.9996 16.4643 78.3276 16.4643 79.8446C16.4643 81.901 15.5572 83.6066 13.7494 84.9667C11.9353 86.3271 9.65697 87.0068 6.91509 87.0068C5.54425 87.0068 4.37471 86.9255 3.40703 86.7693C2.43289 86.6127 1.29673 86.3156 0 85.8842V81.2531C0.947508 82.2027 1.92194 82.8939 2.9368 83.3367C3.9449 83.7793 5.05375 84 6.26335 84C7.78849 84 9.05193 83.6496 10.0534 82.9475C11.0612 82.2463 11.5654 81.3717 11.5654 80.3192C11.5654 79.4017 11.2228 78.5864 10.537 77.8851C9.87178 77.1883 8.66903 76.395 6.94211 75.5096C4.44882 74.2471 2.69459 73.0705 1.68677 71.9852C0.671911 70.9004 0.160961 69.6537 0.160961 68.2556C0.160961 66.3122 1.08183 64.6982 2.923 63.4083C4.77122 62.1183 7.08319 61.4707 9.85836 61.4707C10.974 61.4707 11.9686 61.5516 12.842 61.7079C13.7161 61.8645 14.536 62.1128 15.3086 62.4527V66.7383V66.7383Z" fill="#2C8F25"></path><path fill-rule="evenodd" clip-rule="evenodd" d="M118.713 4.23612C119.754 1.5076 119.078 1.92116 119.121 3.82332C119.183 6.51706 119.639 9.00654 120.125 11.3475C122.547 23.0384 128.1 30.9324 127.303 40.5581C127.01 44.1102 125.367 47.1198 123.326 49.3936C121.869 51.0037 120.7 53.1991 122.348 55.7468C122.404 55.8324 118.036 53.7914 114.832 56.269C114.532 56.5014 114.23 56.619 114.235 56.613C115.117 55.5791 117.982 52.1276 116.375 49.3442C116.341 49.2852 119.052 51.5992 121.449 50.1412C122.096 49.7478 122.89 49.1051 123.279 48.493C124.877 45.9783 125.046 40.3318 125.048 38.5262C125.053 33.1455 122.221 28.4267 120.358 23.0601C119.24 19.8409 118.425 10.9915 118.217 12.1945C118.083 12.9655 109.2 21.8681 108.408 28.9493C107.55 36.6205 120.278 37.6104 116.036 47.7253C112.702 55.6732 105.813 54.8351 104.886 54.7424C99.0593 54.1587 94.8969 51.1651 92.5639 46.697C91.5033 44.6663 90.8206 42.3306 90.5313 39.7782C89.05 26.7056 102.815 20.8599 111.52 13.0258C114.663 10.1978 117.201 8.20143 118.713 4.23612V4.23612Z" fill="#0074FF"></path><path fill-rule="evenodd" clip-rule="evenodd" d="M128.041 1C130.228 1 132.001 2.7371 132.001 4.88035C132.001 7.02264 130.228 8.76 128.041 8.76C125.854 8.76 124.081 7.02264 124.081 4.88035C124.081 2.7371 125.854 1 128.041 1Z" stroke="#2C8F25" stroke-width="2" stroke-miterlimit="2.61313"></path><path d="M126.061 6.81994V2.93994H127.933C128.403 2.93994 128.746 2.97514 128.959 3.04451C129.173 3.11428 129.343 3.23781 129.471 3.41572C129.599 3.5945 129.664 3.79786 129.664 4.02722C129.664 4.3189 129.567 4.55913 129.374 4.74885C129.18 4.93857 128.891 5.05765 128.506 5.1076C128.697 5.20607 128.855 5.31421 128.979 5.43274C129.104 5.55095 129.272 5.76136 129.483 6.06311L130.021 6.81994H128.957L128.32 5.97265C128.092 5.67209 127.935 5.48237 127.85 5.40372C127.766 5.32603 127.677 5.27195 127.582 5.24302C127.487 5.214 127.338 5.19957 127.132 5.19957H126.952V6.81994H126.061ZM126.952 4.58188H127.61C128.036 4.58188 128.302 4.56563 128.408 4.53399C128.514 4.50236 128.598 4.4471 128.657 4.36972C128.718 4.29194 128.748 4.19443 128.748 4.07772C128.748 3.94683 128.708 3.84218 128.629 3.76091C128.55 3.68052 128.438 3.63002 128.295 3.60901C128.222 3.60013 128.005 3.59545 127.646 3.59545H126.952V4.58188Z" fill="#2C8F25"></path></svg>